<svg xmlns="http://www.w3.org/2000/svg" viewBox="0 0 512 512">
  <defs>
    <!-- Deep space background -->
    <radialGradient id="nebula-glow" cx="50%" cy="45%" r="50%">
      <stop offset="0%" stop-color="#1a0a3a" stop-opacity="0.8"/>
      <stop offset="40%" stop-color="#0d0520" stop-opacity="0.5"/>
      <stop offset="100%" stop-color="#040812" stop-opacity="0"/>
    </radialGradient>
    <radialGradient id="nebula-glow2" cx="52%" cy="38%" r="35%">
      <stop offset="0%" stop-color="#2a0a4a" stop-opacity="0.4"/>
      <stop offset="60%" stop-color="#150830" stop-opacity="0.2"/>
      <stop offset="100%" stop-color="#040812" stop-opacity="0"/>
    </radialGradient>
    <!-- Star glow filter -->
    <filter id="star-glow" x="-100%" y="-100%" width="300%" height="300%">
      <feGaussianBlur stdDeviation="2.5" result="blur"/>
      <feMerge>
        <feMergeNode in="blur"/>
        <feMergeNode in="SourceGraphic"/>
      </feMerge>
    </filter>
    <filter id="key-star-glow" x="-150%" y="-150%" width="400%" height="400%">
      <feGaussianBlur stdDeviation="4" result="blur"/>
      <feMerge>
        <feMergeNode in="blur"/>
        <feMergeNode in="SourceGraphic"/>
      </feMerge>
    </filter>
    <filter id="faint-glow" x="-50%" y="-50%" width="200%" height="200%">
      <feGaussianBlur stdDeviation="1.2" result="blur"/>
      <feMerge>
        <feMergeNode in="blur"/>
        <feMergeNode in="SourceGraphic"/>
      </feMerge>
    </filter>
  </defs>

  <!-- Background -->
  <rect width="512" height="512" fill="#040812"/>

  <!-- Nebula glow layers -->
  <g id="nebula">
    <rect width="512" height="512" fill="url(#nebula-glow)"/>
    <rect width="512" height="512" fill="url(#nebula-glow2)"/>
    <!-- Subtle nebula wisps -->
    <ellipse cx="256" cy="210" rx="180" ry="150" fill="none" stroke="#3a1060" stroke-width="0.5" opacity="0.15"/>
    <ellipse cx="270" cy="220" rx="130" ry="110" fill="none" stroke="#4a1580" stroke-width="0.5" opacity="0.1"/>
  </g>

  <!-- Random background stars -->
  <g id="bg-stars">
    <circle cx="42" cy="28" r="1" fill="#e8f0ff" opacity="0.6"/>
    <circle cx="110" cy="55" r="1.5" fill="#b8d0ff" opacity="0.5"/>
    <circle cx="67" cy="112" r="0.8" fill="#e8f0ff" opacity="0.4"/>
    <circle cx="460" cy="35" r="1.2" fill="#e8f0ff" opacity="0.55"/>
    <circle cx="490" cy="88" r="0.7" fill="#b8d0ff" opacity="0.5"/>
    <circle cx="440" cy="140" r="1" fill="#e8f0ff" opacity="0.45"/>
    <circle cx="30" cy="200" r="1.3" fill="#b8d0ff" opacity="0.4"/>
    <circle cx="18" cy="310" r="0.8" fill="#e8f0ff" opacity="0.5"/>
    <circle cx="55" cy="400" r="1.1" fill="#e8f0ff" opacity="0.35"/>
    <circle cx="480" cy="270" r="1.4" fill="#b8d0ff" opacity="0.45"/>
    <circle cx="498" cy="350" r="0.7" fill="#e8f0ff" opacity="0.5"/>
    <circle cx="470" cy="440" r="1" fill="#e8f0ff" opacity="0.4"/>
    <circle cx="100" cy="475" r="1.2" fill="#b8d0ff" opacity="0.45"/>
    <circle cx="380" cy="490" r="0.9" fill="#e8f0ff" opacity="0.4"/>
    <circle cx="30" cy="480" r="1.5" fill="#e8f0ff" opacity="0.3"/>
    <circle cx="145" cy="22" r="0.8" fill="#b8d0ff" opacity="0.55"/>
    <circle cx="370" cy="18" r="1.1" fill="#e8f0ff" opacity="0.5"/>
    <circle cx="418" cy="490" r="1.3" fill="#b8d0ff" opacity="0.35"/>
    <circle cx="502" cy="180" r="0.9" fill="#e8f0ff" opacity="0.45"/>
    <circle cx="12" cy="155" r="1" fill="#b8d0ff" opacity="0.4"/>
  </g>

  <!--
    CONSTELLATION POINTS LAYOUT (female portrait, facing slightly 3/4):

    Hair top/crown:  196,72  218,58  240,52  262,50  284,54  306,64  324,80  336,100
    Hairline/forehead: 200,108  216,90  240,80  264,78  290,84  312,96
    Temple/sides: 192,130  196,155  198,180  310,118  318,140  316,165
    Eyes: L(222,148) L-outer(208,144) L-inner(236,146)  R(284,142) R-outer(298,140) R-inner(270,145)
    Nose bridge: 254,160  252,178  256,195
    Nose tip: 258,208
    Cheekbones: 206,175  204,195  306,170  308,192
    Ear L: 194,165  188,182  192,200
    Ear R: 316,158  322,175  318,195
    Upper lip: 238,228  256,224  274,228
    Lip center: 256,236
    Lower lip: 244,248  256,250  268,248
    Chin: 248,268  256,274  264,268
    Jaw L: 210,256  200,278  206,300
    Jaw R: 302,252  308,275  304,298
    Chin base: 232,304  256,312  280,306
    Neck: 240,328  256,338  272,330
    Shoulders L: 180,355  148,380  118,420  96,460
    Shoulders R: 332,352  362,378  394,418  420,460
    Collar: 218,360  256,368  294,362
    Hair flow L: 182,270  176,320  168,380  158,430
    Hair flow R: 330,260  336,310  342,375  348,430
  -->

  <!-- Constellation lines -->
  <g id="constellation-lines" stroke="rgba(124,92,252,0.25)" stroke-width="0.7" fill="none" stroke-linecap="round">
    <!-- Hair crown arc -->
    <polyline points="196,72 218,58 240,52 262,50 284,54 306,64 324,80 336,100"/>
    <!-- Hair to hairline left -->
    <line x1="196" y1="72" x2="200" y2="108"/>
    <line x1="218" y1="58" x2="216" y2="90"/>
    <line x1="240" y1="52" x2="240" y2="80"/>
    <line x1="262" y1="50" x2="264" y2="78"/>
    <line x1="284" y1="54" x2="290" y2="84"/>
    <line x1="306" y1="64" x2="312" y2="96"/>
    <line x1="324" y1="80" x2="310" y2="118"/>
    <line x1="336" y1="100" x2="318" y2="140"/>
    <!-- Hairline arc -->
    <polyline points="200,108 216,90 240,80 264,78 290,84 312,96"/>
    <!-- Forehead to temples -->
    <line x1="200" y1="108" x2="192" y2="130"/>
    <line x1="312" y1="96" x2="310" y2="118"/>
    <!-- Left temple/side -->
    <polyline points="192,130 196,155 198,180"/>
    <!-- Right temple/side -->
    <polyline points="310,118 318,140 316,165"/>
    <!-- Left eye shape -->
    <polyline points="208,144 222,148 236,146"/>
    <line x1="208" y1="144" x2="192" y2="130"/>
    <line x1="236" y1="146" x2="310" y2="118" stroke-opacity="0.1"/>
    <!-- Right eye shape -->
    <polyline points="270,145 284,142 298,140"/>
    <line x1="298" y1="140" x2="318" y2="140"/>
    <!-- Between eyes / nose bridge -->
    <line x1="236" y1="146" x2="254" y2="160"/>
    <line x1="270" y1="145" x2="254" y2="160"/>
    <!-- Nose bridge down -->
    <polyline points="254,160 252,178 256,195 258,208"/>
    <!-- Cheeks -->
    <line x1="208" y1="144" x2="206" y2="175"/>
    <line x1="206" y1="175" x2="204" y2="195"/>
    <line x1="298" y1="140" x2="306" y2="170"/>
    <line x1="306" y1="170" x2="308" y2="192"/>
    <!-- Ear left -->
    <polyline points="196,155 194,165 188,182 192,200"/>
    <line x1="194" y1="165" x2="198" y2="180"/>
    <!-- Ear right -->
    <polyline points="316,165 316,158 322,175 318,195"/>
    <!-- Cheek to jaw left -->
    <line x1="204" y1="195" x2="206" y2="175"/>
    <line x1="204" y1="195" x2="210" y2="256"/>
    <line x1="192" y1="200" x2="210" y2="256"/>
    <!-- Cheek to jaw right -->
    <line x1="308" y1="192" x2="302" y2="252"/>
    <line x1="318" y1="195" x2="302" y2="252"/>
    <!-- Nose to upper lip -->
    <line x1="258" y1="208" x2="238" y2="228"/>
    <line x1="258" y1="208" x2="256" y2="224"/>
    <line x1="258" y1="208" x2="274" y2="228"/>
    <!-- Lip shape -->
    <polyline points="238,228 256,224 274,228"/>
    <line x1="238" y1="228" x2="244" y2="248"/>
    <line x1="256" y1="224" x2="256" y2="236"/>
    <line x1="274" y1="228" x2="268" y2="248"/>
    <polyline points="244,248 256,250 268,248"/>
    <line x1="256" y1="236" x2="256" y2="250"/>
    <!-- Chin -->
    <line x1="244" y1="248" x2="248" y2="268"/>
    <line x1="256" y1="250" x2="256" y2="274"/>
    <line x1="268" y1="248" x2="264" y2="268"/>
    <polyline points="248,268 256,274 264,268"/>
    <!-- Jaw left -->
    <polyline points="210,256 200,278 206,300 232,304 256,312"/>
    <!-- Jaw right -->
    <polyline points="302,252 308,275 304,298 280,306 256,312"/>
    <!-- Chin to neck -->
    <line x1="256" y1="312" x2="256" y2="338"/>
    <line x1="232" y1="304" x2="240" y2="328"/>
    <line x1="280" y1="306" x2="272" y2="330"/>
    <!-- Neck -->
    <polyline points="240,328 256,338 272,330"/>
    <!-- Neck to shoulders/collar -->
    <line x1="240" y1="328" x2="218" y2="360"/>
    <line x1="256" y1="338" x2="256" y2="368"/>
    <line x1="272" y1="330" x2="294" y2="362"/>
    <polyline points="218,360 256,368 294,362"/>
    <!-- Left shoulder -->
    <line x1="218" y1="360" x2="180" y2="355"/>
    <polyline points="180,355 148,380 118,420 96,460"/>
    <!-- Right shoulder -->
    <line x1="294" y1="362" x2="332" y2="352"/>
    <polyline points="332,352 362,378 394,418 420,460"/>
    <!-- Hair flow left side -->
    <line x1="196" y1="72" x2="182" y2="270"/>
    <polyline points="182,270 176,320 168,380 158,430"/>
    <line x1="192" y1="130" x2="182" y2="270"/>
    <line x1="198" y1="180" x2="182" y2="270"/>
    <!-- Hair flow right side -->
    <line x1="336" y1="100" x2="330" y2="260"/>
    <polyline points="330,260 336,310 342,375 348,430"/>
    <line x1="318" y1="140" x2="330" y2="260"/>
    <line x1="316" y1="165" x2="330" y2="260"/>
    <!-- Cross-connect jaw to hair flow -->
    <line x1="210" y1="256" x2="182" y2="270" stroke-opacity="0.15"/>
    <line x1="302" y1="252" x2="330" y2="260" stroke-opacity="0.15"/>
  </g>

  <!-- Portrait star dots -->
  <g id="portrait-stars">
    <!-- Hair crown — regular stars -->
    <circle cx="218" cy="58" r="2.5" fill="#e8f0ff" filter="url(#faint-glow)" opacity="0.9"/>
    <circle cx="240" cy="52" r="2" fill="#e8f0ff" opacity="0.85"/>
    <circle cx="262" cy="50" r="3" fill="#b8d0ff" filter="url(#faint-glow)" opacity="0.9"/>
    <circle cx="284" cy="54" r="2" fill="#e8f0ff" opacity="0.8"/>
    <circle cx="306" cy="64" r="2.5" fill="#e8f0ff" opacity="0.85"/>
    <circle cx="324" cy="80" r="2" fill="#b8d0ff" opacity="0.8"/>
    <circle cx="336" cy="100" r="2.5" fill="#e8f0ff" opacity="0.85"/>
    <circle cx="196" cy="72" r="2" fill="#e8f0ff" opacity="0.8"/>

    <!-- Hairline -->
    <circle cx="200" cy="108" r="2" fill="#b8d0ff" opacity="0.75"/>
    <circle cx="216" cy="90" r="1.8" fill="#e8f0ff" opacity="0.7"/>
    <circle cx="240" cy="80" r="2" fill="#b8d0ff" opacity="0.75"/>
    <circle cx="264" cy="78" r="1.8" fill="#e8f0ff" opacity="0.7"/>
    <circle cx="290" cy="84" r="2" fill="#b8d0ff" opacity="0.75"/>
    <circle cx="312" cy="96" r="2" fill="#e8f0ff" opacity="0.75"/>

    <!-- Temples / sides -->
    <circle cx="192" cy="130" r="2.5" fill="#b8d0ff" filter="url(#faint-glow)" opacity="0.8"/>
    <circle cx="196" cy="155" r="2" fill="#e8f0ff" opacity="0.75"/>
    <circle cx="198" cy="180" r="2" fill="#b8d0ff" opacity="0.75"/>
    <circle cx="310" cy="118" r="2.5" fill="#e8f0ff" opacity="0.8"/>
    <circle cx="318" cy="140" r="2" fill="#b8d0ff" opacity="0.75"/>
    <circle cx="316" cy="165" r="2" fill="#e8f0ff" opacity="0.75"/>

    <!-- LEFT EYE — key landmark stars -->
    <circle cx="208" cy="144" r="3.5" fill="#7c5cfc" filter="url(#key-star-glow)" opacity="0.95"/>
    <circle cx="222" cy="148" r="5" fill="#7c5cfc" filter="url(#key-star-glow)"/>
    <circle cx="236" cy="146" r="3" fill="#7c5cfc" filter="url(#star-glow)" opacity="0.9"/>

    <!-- RIGHT EYE — key landmark stars -->
    <circle cx="270" cy="145" r="3" fill="#7c5cfc" filter="url(#star-glow)" opacity="0.9"/>
    <circle cx="284" cy="142" r="5" fill="#7c5cfc" filter="url(#key-star-glow)"/>
    <circle cx="298" cy="140" r="3.5" fill="#7c5cfc" filter="url(#key-star-glow)" opacity="0.95"/>

    <!-- Nose bridge -->
    <circle cx="254" cy="160" r="2" fill="#b8d0ff" opacity="0.7"/>
    <circle cx="252" cy="178" r="1.8" fill="#e8f0ff" opacity="0.65"/>
    <circle cx="256" cy="195" r="2" fill="#b8d0ff" opacity="0.7"/>

    <!-- NOSE TIP — key star -->
    <circle cx="258" cy="208" r="4" fill="#7c5cfc" filter="url(#key-star-glow)" opacity="0.9"/>

    <!-- Cheekbones -->
    <circle cx="206" cy="175" r="2.5" fill="#b8d0ff" filter="url(#faint-glow)" opacity="0.75"/>
    <circle cx="204" cy="195" r="2.5" fill="#e8f0ff" filter="url(#faint-glow)" opacity="0.75"/>
    <circle cx="306" cy="170" r="2.5" fill="#b8d0ff" filter="url(#faint-glow)" opacity="0.75"/>
    <circle cx="308" cy="192" r="2.5" fill="#e8f0ff" filter="url(#faint-glow)" opacity="0.75"/>

    <!-- Ears — key position stars -->
    <circle cx="194" cy="165" r="3.5" fill="#7c5cfc" filter="url(#star-glow)" opacity="0.85"/>
    <circle cx="188" cy="182" r="2.5" fill="#b8d0ff" opacity="0.7"/>
    <circle cx="192" cy="200" r="2" fill="#e8f0ff" opacity="0.65"/>
    <circle cx="322" cy="175" r="3.5" fill="#7c5cfc" filter="url(#star-glow)" opacity="0.85"/>
    <circle cx="316" cy="158" r="2" fill="#b8d0ff" opacity="0.7"/>
    <circle cx="318" cy="195" r="2" fill="#e8f0ff" opacity="0.65"/>

    <!-- Lips -->
    <circle cx="238" cy="228" r="2.5" fill="#b8d0ff" opacity="0.8"/>
    <circle cx="256" cy="224" r="3" fill="#7c5cfc" filter="url(#star-glow)" opacity="0.85"/>
    <circle cx="274" cy="228" r="2.5" fill="#b8d0ff" opacity="0.8"/>
    <circle cx="256" cy="236" r="2" fill="#e8f0ff" opacity="0.7"/>
    <circle cx="244" cy="248" r="2" fill="#b8d0ff" opacity="0.7"/>
    <circle cx="256" cy="250" r="2.5" fill="#e8f0ff" opacity="0.75"/>
    <circle cx="268" cy="248" r="2" fill="#b8d0ff" opacity="0.7"/>

    <!-- Chin -->
    <circle cx="248" cy="268" r="2" fill="#e8f0ff" opacity="0.7"/>
    <circle cx="256" cy="274" r="3" fill="#7c5cfc" filter="url(#star-glow)" opacity="0.8"/>
    <circle cx="264" cy="268" r="2" fill="#e8f0ff" opacity="0.7"/>

    <!-- Jawline left -->
    <circle cx="210" cy="256" r="2.5" fill="#b8d0ff" opacity="0.75"/>
    <circle cx="200" cy="278" r="2" fill="#e8f0ff" opacity="0.7"/>
    <circle cx="206" cy="300" r="2" fill="#b8d0ff" opacity="0.65"/>

    <!-- Jawline right -->
    <circle cx="302" cy="252" r="2.5" fill="#b8d0ff" opacity="0.75"/>
    <circle cx="308" cy="275" r="2" fill="#e8f0ff" opacity="0.7"/>
    <circle cx="304" cy="298" r="2" fill="#b8d0ff" opacity="0.65"/>

    <!-- Chin base / jaw meet -->
    <circle cx="232" cy="304" r="2" fill="#e8f0ff" opacity="0.7"/>
    <circle cx="256" cy="312" r="3.5" fill="#7c5cfc" filter="url(#star-glow)" opacity="0.8"/>
    <circle cx="280" cy="306" r="2" fill="#e8f0ff" opacity="0.7"/>

    <!-- Neck -->
    <circle cx="240" cy="328" r="2" fill="#b8d0ff" opacity="0.65"/>
    <circle cx="256" cy="338" r="2.5" fill="#e8f0ff" opacity="0.7"/>
    <circle cx="272" cy="330" r="2" fill="#b8d0ff" opacity="0.65"/>

    <!-- Collar / shoulders top -->
    <circle cx="218" cy="360" r="2" fill="#e8f0ff" opacity="0.65"/>
    <circle cx="256" cy="368" r="2.5" fill="#b8d0ff" opacity="0.65"/>
    <circle cx="294" cy="362" r="2" fill="#e8f0ff" opacity="0.65"/>

    <!-- Left shoulder curve -->
    <circle cx="180" cy="355" r="2" fill="#b8d0ff" opacity="0.6"/>
    <circle cx="148" cy="380" r="2.5" fill="#e8f0ff" opacity="0.55"/>
    <circle cx="118" cy="420" r="2" fill="#b8d0ff" opacity="0.5"/>
    <circle cx="96" cy="460" r="2" fill="#e8f0ff" opacity="0.4"/>

    <!-- Right shoulder curve -->
    <circle cx="332" cy="352" r="2" fill="#b8d0ff" opacity="0.6"/>
    <circle cx="362" cy="378" r="2.5" fill="#e8f0ff" opacity="0.55"/>
    <circle cx="394" cy="418" r="2" fill="#b8d0ff" opacity="0.5"/>
    <circle cx="420" cy="460" r="2" fill="#e8f0ff" opacity="0.4"/>

    <!-- Hair flow left -->
    <circle cx="182" cy="270" r="2.5" fill="#b8d0ff" opacity="0.7"/>
    <circle cx="176" cy="320" r="2" fill="#e8f0ff" opacity="0.6"/>
    <circle cx="168" cy="380" r="2" fill="#b8d0ff" opacity="0.55"/>
    <circle cx="158" cy="430" r="1.8" fill="#e8f0ff" opacity="0.45"/>

    <!-- Hair flow right -->
    <circle cx="330" cy="260" r="2.5" fill="#b8d0ff" opacity="0.7"/>
    <circle cx="336" cy="310" r="2" fill="#e8f0ff" opacity="0.6"/>
    <circle cx="342" cy="375" r="2" fill="#b8d0ff" opacity="0.55"/>
    <circle cx="348" cy="430" r="1.8" fill="#e8f0ff" opacity="0.45"/>
  </g>
</svg>
